<svg xmlns="http://www.w3.org/2000/svg" xmlns:xlink="http://www.w3.org/1999/xlink" width="500" zoomAndPan="magnify" viewBox="0 0 375 374.999991" height="500" preserveAspectRatio="xMidYMid meet" version="1.0"><defs><g/><clipPath id="8aeab00cfc"><path d="M 187.5 0 C 83.945312 0 0 83.945312 0 187.5 C 0 291.054688 83.945312 375 187.5 375 C 291.054688 375 375 291.054688 375 187.5 C 375 83.945312 291.054688 0 187.5 0 Z M 187.5 0 " clip-rule="nonzero"/></clipPath><clipPath id="1310cac5f5"><path d="M 104 143 L 333.613281 143 L 333.613281 298 L 104 298 Z M 104 143 " clip-rule="nonzero"/></clipPath></defs><g clip-path="url(#8aeab00cfc)"><rect x="-37.5" width="450" fill="#008080" y="-37.499999" height="449.999989" fill-opacity="1"/></g><g fill="#ffffff" fill-opacity="1"><g transform="translate(59.933338, 178.70099)"><g><path d="M 28.3125 1.078125 C 20.53125 1.078125 15.003906 -0.265625 11.734375 -2.953125 C 8.472656 -5.640625 6.414062 -10 5.5625 -16.03125 C 4.71875 -22.070312 4.296875 -32.117188 4.296875 -46.171875 C 4.296875 -60.222656 4.71875 -70.265625 5.5625 -76.296875 C 6.414062 -82.335938 8.472656 -86.703125 11.734375 -89.390625 C 15.003906 -92.078125 20.53125 -93.421875 28.3125 -93.421875 C 36.101562 -93.421875 41.648438 -92.078125 44.953125 -89.390625 C 48.265625 -86.703125 50.347656 -82.335938 51.203125 -76.296875 C 52.054688 -70.265625 52.484375 -60.222656 52.484375 -46.171875 C 52.484375 -32.117188 52.054688 -22.070312 51.203125 -16.03125 C 50.347656 -10 48.265625 -5.640625 44.953125 -2.953125 C 41.648438 -0.265625 36.101562 1.078125 28.3125 1.078125 Z M 28.3125 -13.5625 C 31 -13.5625 32.832031 -14.097656 33.8125 -15.171875 C 34.800781 -16.242188 35.453125 -18.878906 35.765625 -23.078125 C 36.078125 -27.285156 36.234375 -34.984375 36.234375 -46.171875 C 36.234375 -57.359375 36.078125 -65.050781 35.765625 -69.25 C 35.453125 -73.457031 34.800781 -76.097656 33.8125 -77.171875 C 32.832031 -78.242188 31 -78.78125 28.3125 -78.78125 C 25.632812 -78.78125 23.820312 -78.242188 22.875 -77.171875 C 21.9375 -76.097656 21.289062 -73.4375 20.9375 -69.1875 C 20.582031 -64.9375 20.40625 -57.265625 20.40625 -46.171875 C 20.40625 -35.078125 20.582031 -27.40625 20.9375 -23.15625 C 21.289062 -18.90625 21.9375 -16.242188 22.875 -15.171875 C 23.820312 -14.097656 25.632812 -13.5625 28.3125 -13.5625 Z M 28.3125 -13.5625 "/></g></g></g><g fill="#ffffff" fill-opacity="1"><g transform="translate(116.703026, 178.70099)"><g><path d="M 5.765625 -92.34375 L 30.609375 -92.34375 C 36.597656 -92.34375 41.113281 -91.175781 44.15625 -88.84375 C 47.195312 -86.519531 49.207031 -83.1875 50.1875 -78.84375 C 51.175781 -74.507812 51.671875 -68.675781 51.671875 -61.34375 C 51.671875 -54.269531 51.203125 -48.5625 50.265625 -44.21875 C 49.328125 -39.882812 47.335938 -36.460938 44.296875 -33.953125 C 41.253906 -31.453125 36.691406 -30.203125 30.609375 -30.203125 L 22.015625 -30.203125 L 22.015625 0 L 5.765625 0 Z M 27.921875 -44.828125 C 30.242188 -44.828125 31.921875 -45.25 32.953125 -46.09375 C 33.984375 -46.945312 34.65625 -48.445312 34.96875 -50.59375 C 35.28125 -52.75 35.4375 -56.332031 35.4375 -61.34375 C 35.4375 -66.351562 35.28125 -69.929688 34.96875 -72.078125 C 34.65625 -74.222656 33.984375 -75.695312 32.953125 -76.5 C 31.921875 -77.3125 30.242188 -77.71875 27.921875 -77.71875 L 22.015625 -77.71875 L 22.015625 -44.828125 Z M 27.921875 -44.828125 "/></g></g></g><g clip-path="url(#1310cac5f5)"><path fill="#ffffff" d="M 215.996094 258.539062 L 218.460938 257.929688 C 218.863281 252.894531 220.910156 248.722656 223.929688 245.007812 C 232.1875 234.847656 245.113281 236.414062 250.734375 248.21875 C 252.363281 251.644531 251.679688 251.03125 259.9375 251.03125 C 258.101562 239.160156 257.601562 220.5625 238.203125 215.910156 C 235.699219 215.308594 233.265625 214.433594 230.761719 213.835938 C 227.945312 213.160156 226.339844 211.722656 226.816406 208.613281 C 227.753906 202.488281 224.945312 196.046875 228.621094 190.078125 C 229.339844 188.910156 229.542969 187.761719 231.0625 187.253906 C 251.167969 180.511719 245.199219 183.222656 316.722656 188.394531 C 319.773438 188.613281 321.882812 186.96875 321.375 184.355469 C 320.703125 180.894531 319.34375 177.566406 318.28125 174.179688 L 317.625 174.378906 C 318.230469 180.316406 319.136719 183.324219 314.34375 182.929688 C 313.585938 182.867188 307.917969 182.890625 305.957031 180.085938 C 303.742188 176.925781 301.695312 173.605469 299.964844 170.160156 C 297.585938 165.414062 293.75 163.507812 288.675781 163.058594 C 256.433594 160.195312 248.015625 157.363281 237.289062 162.378906 C 223.847656 168.660156 219.273438 168.128906 218.074219 174.941406 C 216.601562 183.273438 216.882812 176.433594 216.882812 253.734375 C 184.636719 257.847656 153.613281 266.773438 121.902344 271.988281 L 121.902344 276.046875 L 126.21875 276.046875 C 126.21875 278.265625 125.40625 283.628906 128.6875 293.355469 C 129.496094 295.753906 131.699219 296.890625 134.394531 296.953125 C 142.757812 297.140625 143.414062 290.277344 144.269531 286.378906 C 148.183594 294.671875 148.054688 297.875 156.085938 296.882812 C 161.300781 296.238281 162.714844 291.972656 164.136719 287.570312 C 171.445312 287.570312 178.816406 287.675781 186.183594 287.515625 C 188.871094 287.457031 190.335938 287.914062 191.222656 290.90625 C 192.605469 295.578125 195.457031 297.121094 200.226562 296.933594 C 206.933594 296.664062 208.042969 290.113281 208.953125 286.398438 L 219.5625 285.824219 C 215.457031 276.121094 215.996094 283.886719 215.996094 258.539062 Z M 132.476562 291.199219 C 130.488281 291.199219 128.875 287.308594 128.875 282.511719 C 128.875 277.714844 130.488281 273.824219 132.476562 273.824219 C 134.46875 273.824219 136.082031 277.714844 136.082031 282.511719 C 136.082031 287.308594 134.46875 291.199219 132.476562 291.199219 Z M 150.683594 291.289062 C 148.550781 291.289062 146.824219 287.121094 146.824219 281.984375 C 146.824219 276.847656 148.550781 272.683594 150.683594 272.683594 C 152.8125 272.683594 154.542969 276.847656 154.542969 281.984375 C 154.542969 287.121094 152.8125 291.289062 150.683594 291.289062 Z M 333.390625 255.855469 C 331.835938 255.855469 281.515625 255.339844 257.359375 255.335938 C 252.597656 255.335938 249.445312 254.460938 247.105469 249.710938 C 242 239.332031 226.140625 239.542969 221.007812 256.492188 C 218.773438 263.867188 219.550781 271.472656 220 279 C 220.09375 280.621094 221.011719 282.378906 222.023438 283.714844 C 223.394531 285.527344 225.734375 285.273438 226.835938 283.347656 C 229.394531 290.636719 232.457031 296.976562 241.617188 297.59375 C 251.6875 298.265625 256.902344 292.929688 259.886719 284.253906 C 266.546875 284.253906 272.996094 284.328125 279.445312 284.210938 C 281.359375 284.175781 282.226562 284.707031 283.011719 286.570312 C 285.464844 292.394531 289.46875 296.65625 296.140625 297.457031 C 303.714844 298.363281 310.488281 296.464844 313.960938 289.316406 C 316.070312 284.972656 318.519531 283.894531 322.953125 284.152344 C 328.445312 284.472656 333.035156 280.242188 333.320312 274.769531 C 333.640625 268.628906 333.390625 262.457031 333.390625 255.855469 Z M 234.726562 288.046875 C 230.742188 288.046875 227.511719 282.335938 227.511719 275.289062 C 227.511719 268.242188 230.742188 262.53125 234.726562 262.53125 C 238.710938 262.53125 241.941406 268.242188 241.941406 275.289062 C 241.941406 282.335938 238.710938 288.046875 234.726562 288.046875 Z M 258.824219 260.226562 C 261.828125 259.5625 264.269531 259.382812 266.207031 262.222656 C 268.628906 265.773438 271.335938 269.132812 274.234375 272.996094 C 264.507812 270.703125 265.441406 272.71875 258.824219 260.226562 Z M 300.382812 274.308594 C 286.3125 274.21875 286.457031 275.253906 283.960938 268.921875 L 307.355469 268.921875 C 305.914062 273.707031 305.078125 274.339844 300.382812 274.308594 Z M 273.519531 262.667969 C 272.308594 262.648438 271.117188 261.558594 269.914062 260.964844 L 270.292969 260.222656 L 320.089844 260.222656 L 320.570312 261.464844 C 319.429688 262.007812 318.289062 263.027344 317.152344 263.027344 C 302.605469 263.015625 288.0625 262.902344 273.519531 262.667969 Z M 317.054688 272.910156 C 319.503906 269.273438 321.753906 265.867188 324.066406 262.507812 C 326.046875 259.628906 326.125 259.636719 330.300781 260.589844 C 324.378906 271.96875 326.582031 270.675781 317.054688 272.910156 Z M 312.300781 192.367188 C 311.808594 189.425781 310.480469 190.519531 303.421875 189.96875 C 288.101562 188.773438 251.28125 185.890625 247.835938 185.644531 L 251.015625 206.738281 L 315.632812 210.832031 C 314.507812 204.667969 313.335938 198.527344 312.300781 192.367188 Z M 309.988281 207.648438 C 304.214844 206.085938 303.507812 201.839844 304.1875 196.800781 C 304.347656 195.632812 304.210938 194.429688 304.210938 193.242188 C 310.519531 193.457031 309.738281 194.660156 310.785156 207.652344 C 310.164062 207.652344 310.070312 207.671875 309.988281 207.648438 Z M 115.335938 212.941406 C 117.496094 210.992188 158.972656 175.933594 177.820312 160.691406 C 218.472656 127.8125 260.855469 151.738281 273.730469 157.027344 L 273.445312 158.242188 C 254.421875 156.398438 248.34375 155.148438 240.40625 157.796875 C 235.855469 159.3125 210.347656 144.65625 178.070312 168.125 C 115.738281 213.5 117.332031 212.8125 115.335938 212.941406 Z M 267.105469 231.871094 C 265.820312 231.832031 264.238281 231.71875 264.632812 233.785156 C 266.984375 246.125 267.285156 250.066406 275.011719 250.261719 C 280.359375 250.394531 307.460938 250.757812 315.667969 250.925781 C 322.980469 251.078125 322.261719 246.773438 324.558594 234.15625 C 319.976562 233.679688 267.117188 231.871094 267.105469 231.871094 Z M 315.875 246.035156 C 302.0625 245.757812 288.253906 245.394531 274.445312 244.964844 C 273.464844 244.933594 272.507812 244.25 271.539062 243.871094 L 271.871094 242.691406 L 318.128906 243.925781 L 318.464844 244.78125 C 317.601562 245.21875 316.730469 246.054688 315.875 246.035156 Z M 317.886719 237.855469 C 318.425781 238.042969 318.808594 238.679688 319.257812 239.113281 C 318.777344 239.410156 318.304688 239.941406 317.8125 239.960938 C 313.789062 240.125 275.78125 238.898438 273.078125 238.808594 C 271.816406 238.769531 269.882812 239.300781 270.117188 236.816406 C 295.777344 236.816406 317.78125 237.820312 317.886719 237.855469 Z M 326.226562 224.207031 L 251.832031 210.136719 L 251.949219 209.445312 C 297.527344 212.125 296.515625 212.605469 306.863281 212.683594 C 315.59375 212.746094 320.9375 217.488281 326.226562 224.207031 Z M 242.808594 185.882812 L 247.066406 212.691406 C 242.8125 211.332031 239.058594 210.21875 235.386719 208.875 C 233.609375 208.222656 234.789062 201.949219 234.0625 191.433594 L 229.621094 191.058594 C 232.28125 188.648438 229.164062 189.894531 242.808594 185.882812 Z M 318.511719 195.691406 C 321.933594 195.792969 322.316406 196.300781 322.320312 199.613281 L 322.320312 212.542969 C 317.207031 212.304688 317.21875 212.304688 316.445312 207.464844 C 315.570312 201.96875 314.667969 196.472656 313.777344 190.976562 L 314.800781 190.527344 C 315.191406 191.484375 315.84375 192.421875 315.90625 193.398438 C 316.019531 195.199219 316.8125 195.640625 318.511719 195.691406 Z M 329.167969 251.472656 L 329.167969 229.429688 C 333.746094 236.234375 332.675781 243.851562 333.199219 251.457031 C 330.675781 251.703125 331.757812 251.707031 329.167969 251.472656 Z M 106.5 231.859375 L 193.679688 176.125 C 198.644531 172.632812 205.484375 176.183594 205.484375 182.253906 C 205.484375 185.074219 203.898438 187.65625 201.382812 188.933594 L 108.027344 234.402344 C 106.382812 235.238281 104.988281 232.921875 106.5 231.859375 Z M 105.710938 246.40625 L 194.238281 198.464844 C 198.726562 195.871094 205.484375 198.253906 205.484375 205.839844 C 205.484375 208.941406 203.570312 211.726562 200.671875 212.835938 L 106.988281 249.085938 C 105.277344 249.738281 104.125 247.324219 105.710938 246.40625 Z M 199.855469 237.863281 L 106.09375 264.664062 C 104.332031 265.117188 103.457031 262.617188 105.113281 261.871094 L 194.902344 222.171875 C 199.863281 219.929688 205.484375 223.554688 205.484375 229 L 205.484375 230.605469 C 205.484375 234.023438 203.167969 237.011719 199.855469 237.863281 Z M 199.855469 237.863281 " fill-opacity="1" fill-rule="nonzero"/></g></svg>